# xmcd
#
# Track frame offsets:
#	150
#	18962
#	34834
#	56235
#	76708
#	98888
#	117700
#	139101
#
# Disc length: 2148 seconds
#
# Revision: 0
# Processed by: cddbd v1.5.2PL0 Copyright (c) Steve Scherf et al.
# Submitted via: EasyCDDAExtractor 12.0.0.1
#
DISCID=66086208
DTITLE=이은미 - 소리 위를 걷다 (미니앨범) (Sony Music-2009)
DYEAR=2009
DGENRE=Ballad
TTITLE0=결혼 안 하길 잘했지
TTITLE1=Time and Life
TTITLE2=헤어지는 중입니다
TTITLE3=꽃
TTITLE4=오래된 기억
TTITLE5=결혼 안 하길 잘했지(MR)
TTITLE6=헤어지는 중입니다(MR)
TTITLE7=오래된 기억(MR)
EXTD=
EXTT0=
EXTT1=
EXTT2=
EXTT3=
EXTT4=
EXTT5=
EXTT6=
EXTT7=
PLAYORDER=
